<?xml version='1.0' encoding='UTF-8' standalone='no'?>
<!-- Created with Inkscape (http://www.inkscape.org/) -->
<svg xmlns="http://www.w3.org/2000/svg" id="svg1891" viewBox="0 0 105.09678 25.00005" gorn="0"  version="1.1" width="105.09678mm" height="25.00005mm">
    <desc >
        <referenceFile >touchpiano3.svg</referenceFile>
    </desc>
    <defs id="defs1888" />
    <g  transform="translate(-6.5166958,-84.898471)">
        <g >
            <g id="layer1" gorn="0.2.0.0"  style="display:none">
                <path id="rect1974" fill-opacity="1" stroke="#848484" stroke-opacity="1" stroke-width="0.541364" gorn="0.2.0.0.0"  fill="#030303" d="m 18.846052,85.381529 c -3.714461,0.04194 -6.690548,2.739276 -6.690548,6.08335 v 12.291241 c 0,3.37041 3.023111,6.08387 6.778398,6.08387 h 85.901738 c 3.75528,0 6.77839,-2.71346 6.77839,-6.08387 V 91.464879 c 0,-3.370405 -3.02311,-6.08335 -6.77839,-6.08335 H 18.933902 c -0.02934,0 -0.0586,-3.2e-4 -0.08785,0 z m 88.949098,2.70578 a 1.9598529,1.9598529 0 0 1 1.95957,1.960086 1.9598529,1.9598529 0 0 1 -1.95957,1.960086 1.9598529,1.9598529 0 0 1 -1.96009,-1.960086 1.9598529,1.9598529 0 0 1 1.96009,-1.960086 z m -91.41303,0.116787 a 1.9598528,1.9598528 0 0 1 1.95957,1.960089 1.9598528,1.9598528 0 0 1 -1.95957,1.95957 1.9598528,1.9598528 0 0 1 -1.960087,-1.95957 1.9598528,1.9598528 0 0 1 1.960087,-1.960089 z m 0,14.910204 a 1.9598529,1.9598529 0 0 1 1.95957,1.96009 1.9598529,1.9598529 0 0 1 -1.95957,1.95957 1.9598529,1.9598529 0 0 1 -1.960087,-1.95957 1.9598529,1.9598529 0 0 1 1.960087,-1.96009 z m 91.41303,0 a 1.9598529,1.9598529 0 0 1 1.95957,1.96009 1.9598529,1.9598529 0 0 1 -1.95957,1.95957 1.9598529,1.9598529 0 0 1 -1.96009,-1.95957 1.9598529,1.9598529 0 0 1 1.96009,-1.96009 z" style="stroke-linejoin:round;"/>
            </g>
        </g>
    </g>
    <g  transform="translate(-6.5166958,-84.898471)">
        <g >
            <g id="layer10" gorn="0.3.0.0" >
                <g  transform="matrix(0.26458333,0,0,0.26458333,6.0137082,84.898484)">
                    <g >
                        <path id="rect63515" fill-opacity="1" stroke="#848484" stroke-opacity="1" stroke-width="2.66416" gorn="0.3.0.0.0.0.0"  fill="#000000" d="m 39.236328,1.3320312 c -9.273365,0 -16.738281,7.0832464 -16.738281,15.8828128 v 60.05664 c 0,8.799566 7.464916,15.884766 16.738281,15.884766 H 381.04688 c 9.27333,0 16.73828,-7.0852 16.73828,-15.884766 v -60.05664 c 0,-8.7995664 -7.46495,-15.8828126 -16.73828,-15.8828128 z m 0.751953,6.5859376 a 6.5993312,6.5993312 0 0 1 6.59961,6.5976562 6.5993312,6.5993312 0 0 1 -6.59961,6.599609 6.5993312,6.5993312 0 0 1 -6.599609,-6.599609 6.5993312,6.5993312 0 0 1 6.599609,-6.5976562 z m 340.716799,0 a 6.5993315,6.5993315 0 0 1 6.59961,6.5976562 6.5993315,6.5993315 0 0 1 -6.59961,6.599609 6.5993315,6.5993315 0 0 1 -6.59961,-6.599609 6.5993315,6.5993315 0 0 1 6.59961,-6.5976562 z m 0,65.2968752 a 6.5993314,6.5993314 0 0 1 6.59961,6.597656 6.5993314,6.5993314 0 0 1 -6.59961,6.599609 6.5993314,6.5993314 0 0 1 -6.59961,-6.599609 6.5993314,6.5993314 0 0 1 6.59961,-6.597656 z M 39.988281,73.394531 a 6.5993313,6.5993313 0 0 1 6.59961,6.59961 6.5993313,6.5993313 0 0 1 -6.59961,6.597656 6.5993313,6.5993313 0 0 1 -6.599609,-6.597656 6.5993313,6.5993313 0 0 1 6.599609,-6.59961 z" style="stroke-linejoin:miter;stroke-miterlimit:4;stroke-dasharray:none;"/>
                    </g>
                </g>
            </g>
        </g>
    </g>
    <g  transform="translate(-6.5166958,-84.898471)">
        <g >
            <g id="layer8" gorn="0.4.0.0"  style="display:inline">
                <rect id="rect38327" fill-opacity="1" ry="0" x="21.052319" y="85.818314" stroke="#ffffff" stroke-width="0.424636" gorn="0.4.0.0.0"  fill="#ffffff" style="stroke-linejoin:miter;stroke-miterlimit:4;stroke-dasharray:none" rx="0" width="10.572258" height="23.153198"/>
                <rect id="rect39098" fill-opacity="1" ry="0" x="32.97068" y="85.818314" stroke="#ffffff" stroke-width="0.424636" gorn="0.4.0.0.1"  fill="#ffffff" style="stroke-linejoin:miter;stroke-miterlimit:4;stroke-dasharray:none" rx="0" width="10.572258" height="23.153198"/>
                <rect id="rect39100" fill-opacity="1" ry="0" x="44.812229" y="85.818314" stroke="#ffffff" stroke-width="0.424636" gorn="0.4.0.0.2"  fill="#ffffff" style="stroke-linejoin:miter;stroke-miterlimit:4;stroke-dasharray:none" rx="0" width="10.572258" height="23.153198"/>
                <rect id="rect39102" fill-opacity="1" ry="0" x="56.625843" y="85.818314" stroke="#ffffff" stroke-width="0.424636" gorn="0.4.0.0.3"  fill="#ffffff" style="stroke-linejoin:miter;stroke-miterlimit:4;stroke-dasharray:none" rx="0" width="10.572258" height="23.153198"/>
                <rect id="rect39104" fill-opacity="1" ry="0" x="68.471718" y="85.818314" stroke="#ffffff" stroke-width="0.424636" gorn="0.4.0.0.4"  fill="#ffffff" style="stroke-linejoin:miter;stroke-miterlimit:4;stroke-dasharray:none" rx="0" width="10.572258" height="23.153198"/>
                <rect id="rect39106" fill-opacity="1" ry="0" x="80.370071" y="85.818314" stroke="#ffffff" stroke-width="0.424636" gorn="0.4.0.0.5"  fill="#ffffff" style="stroke-linejoin:miter;stroke-miterlimit:4;stroke-dasharray:none" rx="0" width="10.572258" height="23.153198"/>
                <rect id="rect39108" fill-opacity="1" ry="0" x="92.280029" y="85.818314" stroke="#ffffff" stroke-width="0.424636" gorn="0.4.0.0.6"  fill="#ffffff" style="stroke-linejoin:miter;stroke-miterlimit:4;stroke-dasharray:none" rx="0" width="10.572258" height="23.153198"/>
            </g>
        </g>
    </g>
    <g  transform="translate(-6.5166958,-84.898471)">
        <g >
            <g id="layer9" gorn="0.5.0.0"  style="display:inline">
                <g id="g931" gorn="0.5.0.0.0" >
                    <rect id="rect39318" fill-opacity="1" x="28.230749" y="86.034401" stroke="#000000" stroke-opacity="1" stroke-width="0.919522" gorn="0.5.0.0.0.0"  fill="#030303" style="stroke-linejoin:miter;stroke-miterlimit:4;stroke-dasharray:none;" width="7.9775457" height="10.166823"/>
                    <rect id="rect39596" fill-opacity="1" x="28.54125" y="86.302895" stroke="#ffffff" stroke-opacity="1" stroke-width="0.36674" gorn="0.5.0.0.0.1"  fill="#030303" style="stroke-linejoin:miter;stroke-miterlimit:4;stroke-dasharray:none;" width="7.3565431" height="9.6298418"/>
                </g>
                <g id="g935" gorn="0.5.0.0.1" >
                    <rect id="rect39411" fill-opacity="1" x="40.17625" y="86.034401" stroke="#000000" stroke-opacity="1" stroke-width="0.919522" gorn="0.5.0.0.1.0"  fill="#030303" style="stroke-linejoin:miter;stroke-miterlimit:4;stroke-dasharray:none;" width="7.9775457" height="10.166823"/>
                    <rect id="rect39852" fill-opacity="1" x="40.486752" y="86.302895" stroke="#ffffff" stroke-opacity="1" stroke-width="0.36674" gorn="0.5.0.0.1.1"  fill="#030303" style="stroke-linejoin:miter;stroke-miterlimit:4;stroke-dasharray:none;" width="7.3565431" height="9.6298418"/>
                </g>
                <g id="g943" gorn="0.5.0.0.2" >
                    <rect id="rect39413" fill-opacity="1" x="63.893768" y="86.034401" stroke="#000000" stroke-opacity="1" stroke-width="0.919522" gorn="0.5.0.0.2.0"  fill="#030303" style="stroke-linejoin:miter;stroke-miterlimit:4;stroke-dasharray:none;" width="7.9775457" height="10.166823"/>
                    <rect id="rect39854" fill-opacity="1" x="64.204269" y="86.302895" stroke="#ffffff" stroke-opacity="1" stroke-width="0.36674" gorn="0.5.0.0.2.1"  fill="#030303" style="stroke-linejoin:miter;stroke-miterlimit:4;stroke-dasharray:none;" width="7.3565431" height="9.6298418"/>
                </g>
                <g id="g947" gorn="0.5.0.0.3" >
                    <rect id="rect39415" fill-opacity="1" x="75.751556" y="86.034401" stroke="#000000" stroke-opacity="1" stroke-width="0.919522" gorn="0.5.0.0.3.0"  fill="#030303" style="stroke-linejoin:miter;stroke-miterlimit:4;stroke-dasharray:none;" width="7.9775457" height="10.166823"/>
                    <rect id="rect39856" fill-opacity="1" x="76.062057" y="86.302895" stroke="#ffffff" stroke-opacity="1" stroke-width="0.36674" gorn="0.5.0.0.3.1"  fill="#030303" style="stroke-linejoin:miter;stroke-miterlimit:4;stroke-dasharray:none;" width="7.3565431" height="9.6298418"/>
                </g>
                <g id="g951" gorn="0.5.0.0.4" >
                    <rect id="rect39417" fill-opacity="1" x="87.695236" y="86.034401" stroke="#000000" stroke-opacity="1" stroke-width="0.919522" gorn="0.5.0.0.4.0"  fill="#030303" style="stroke-linejoin:miter;stroke-miterlimit:4;stroke-dasharray:none;" width="7.9775457" height="10.166823"/>
                    <rect id="rect39858" fill-opacity="1" x="88.005737" y="86.302895" stroke="#ffffff" stroke-opacity="1" stroke-width="0.36674" gorn="0.5.0.0.4.1"  fill="#030303" style="stroke-linejoin:miter;stroke-miterlimit:4;stroke-dasharray:none;" width="7.3565431" height="9.6298418"/>
                </g>
                <rect id="rect39914" fill-opacity="1" x="6.6170473" y="92.11132" stroke="#848484" stroke-opacity="1" stroke-width="0.200703" gorn="0.5.0.0.5"  fill="#848484" style="stroke-linecap:butt;stroke-linejoin:miter;stroke-miterlimit:4;stroke-dasharray:none;" width="4.8992972" height="0.36081725"/>
                <rect id="rect46118" fill-opacity="1" x="6.6170473" y="94.664612" stroke="#848484" stroke-opacity="1" stroke-width="0.200703" gorn="0.5.0.0.6"  fill="#848484" style="stroke-linejoin:miter;stroke-miterlimit:4;stroke-dasharray:none;" width="4.8992972" height="0.36081725"/>
                <rect id="rect46120" fill-opacity="1" x="6.6170473" y="97.218071" stroke="#848484" stroke-opacity="1" stroke-width="0.200703" gorn="0.5.0.0.7"  fill="#848484" style="stroke-linejoin:miter;stroke-miterlimit:4;stroke-dasharray:none;" width="4.8992972" height="0.36081725"/>
                <rect id="rect46122" fill-opacity="1" x="6.6170473" y="99.771194" stroke="#848484" stroke-opacity="1" stroke-width="0.200703" gorn="0.5.0.0.8"  fill="#848484" style="stroke-linejoin:miter;stroke-miterlimit:4;stroke-dasharray:none;" width="4.8992972" height="0.36081725"/>
                <rect id="rect46124" fill-opacity="1" x="6.6170473" y="102.3245" stroke="#848484" stroke-opacity="1" stroke-width="0.200703" gorn="0.5.0.0.9"  fill="#848484" style="stroke-linejoin:miter;stroke-miterlimit:4;stroke-dasharray:none;" width="4.8992972" height="0.36081725"/>
                <circle id="path46160" cx="13.242995" fill-opacity="1" cy="92.318314" stroke="#848484" stroke-opacity="1" stroke-width="0.3" r="0.2805689" gorn="0.5.0.0.10"  fill="#848484" style="stroke-linejoin:miter;stroke-miterlimit:4;stroke-dasharray:none;"/>
                <circle id="circle46251" cx="13.242995" fill-opacity="1" cy="94.858315" stroke="#848484" stroke-opacity="1" stroke-width="0.3" r="0.2805689" gorn="0.5.0.0.11"  fill="#848484" style="stroke-linejoin:miter;stroke-miterlimit:4;stroke-dasharray:none;"/>
                <circle id="circle46253" cx="13.242995" fill-opacity="1" cy="97.398483" stroke="#848484" stroke-opacity="1" stroke-width="0.3" r="0.2805689" gorn="0.5.0.0.12"  fill="#848484" style="stroke-linejoin:miter;stroke-miterlimit:4;stroke-dasharray:none;"/>
                <circle id="circle46255" cx="13.242995" fill-opacity="1" cy="99.938309" stroke="#848484" stroke-opacity="1" stroke-width="0.3" r="0.2805689" gorn="0.5.0.0.13"  fill="#848484" style="stroke-linejoin:miter;stroke-miterlimit:4;stroke-dasharray:none;"/>
                <circle id="circle46257" cx="13.242995" fill-opacity="1" cy="102.47831" stroke="#848484" stroke-opacity="1" stroke-width="0.3" r="0.2805689" gorn="0.5.0.0.14"  fill="#848484" style="stroke-linejoin:miter;stroke-miterlimit:4;stroke-dasharray:none;"/>
                <g  transform="matrix(0.19576779,0,0,0.19576779,12.906366,76.92917)">
                    <g >
                        <g id="text47537" font-size="2.38948" stroke="#848484" stroke-width="0.3" gorn="0.5.0.0.15.0.0"  aria-label="RGB" fill="#848484">
                            <path id="path63399" gorn="0.5.0.0.15.0.0.0"  d="m 9.7020158,78.797288 q 0.2687176,0.09095 0.5208982,0.388607 0.256316,0.297657 0.512631,0.818555 l 0.847494,1.68672 H 10.685936 L 9.8963193,80.107803 Q 9.5903947,79.487686 9.3010066,79.285114 9.0157526,79.082542 8.5196586,79.082542 H 7.610153 V 81.69117 H 6.7750616 v -6.172236 h 1.885157 q 1.0583337,0 1.5792324,0.442351 0.520899,0.44235 0.520899,1.335319 0,0.582911 -0.272852,0.967383 -0.268718,0.384473 -0.7854822,0.533301 z M 7.610153,76.205198 v 2.191081 h 1.0500656 q 0.6035809,0 0.9095055,-0.276986 0.3100587,-0.28112 0.3100587,-0.822689 0,-0.541569 -0.3100587,-0.814421 -0.3059246,-0.276985 -0.9095055,-0.276985 z"/>
                            <path id="path63401" gorn="0.5.0.0.15.0.0.1"  d="m 16.866439,80.810603 v -1.657781 h -1.364258 v -0.686263 h 2.191081 v 2.649969 q -0.483691,0.343131 -1.066602,0.520898 -0.58291,0.173633 -1.244369,0.173633 -1.44694,0 -2.265495,-0.84336 -0.814421,-0.847493 -0.814421,-2.356446 0,-1.513086 0.814421,-2.356446 0.818555,-0.847494 2.265495,-0.847494 0.603581,0 1.145151,0.148828 0.545703,0.148828 1.00459,0.438217 v 0.888835 q -0.463021,-0.392741 -0.98392,-0.591179 -0.520898,-0.198438 -1.095541,-0.198438 -1.132747,0 -1.703255,0.63252 -0.566374,0.63252 -0.566374,1.885157 0,1.248503 0.566374,1.881023 0.570508,0.63252 1.703255,0.63252 0.442351,0 0.789617,-0.07441 0.347265,-0.07855 0.624251,-0.239779 z"/>
                            <path id="path63403" gorn="0.5.0.0.15.0.0.2"  d="m 20.053842,78.743545 v 2.261361 h 1.339454 q 0.673861,0 0.996322,-0.276985 0.326595,-0.28112 0.326595,-0.855762 0,-0.578777 -0.326595,-0.851628 -0.322461,-0.276986 -0.996322,-0.276986 z m 0,-2.538347 v 1.860352 h 1.236101 q 0.611849,0 0.909506,-0.227377 0.30179,-0.23151 0.30179,-0.702799 0,-0.467155 -0.30179,-0.698666 -0.297657,-0.23151 -0.909506,-0.23151 z m -0.835091,-0.686264 h 2.133204 q 0.954981,0 1.471745,0.396875 0.516765,0.396876 0.516765,1.128614 0,0.566374 -0.264584,0.901237 -0.264583,0.334864 -0.777214,0.417546 0.615984,0.132292 0.954981,0.553972 0.343132,0.417545 0.343132,1.045931 0,0.826823 -0.56224,1.277442 -0.56224,0.450619 -1.599903,0.450619 h -2.215886 z"/>
                        </g>
                    </g>
                </g>
                <g  transform="matrix(0.19576779,0,0,0.19576779,8.3860723,80.374409)">
                    <g >
                        <g id="text49725" font-size="2.38948" stroke="#848484" stroke-width="0.3" gorn="0.5.0.0.16.0.0"  aria-label="SDO" fill="#848484">
                            <path id="path63406" gorn="0.5.0.0.16.0.0.0"  d="m 33.838027,71.097467 v 0.814421 q -0.475424,-0.227376 -0.897103,-0.338997 -0.42168,-0.111622 -0.814421,-0.111622 -0.682129,0 -1.0542,0.264584 -0.367936,0.264583 -0.367936,0.752409 0,0.409278 0.243913,0.620117 0.248047,0.206706 0.93431,0.334864 l 0.504362,0.103353 q 0.93431,0.177767 1.376661,0.628385 0.446484,0.446485 0.446484,1.198894 0,0.897103 -0.603581,1.360124 -0.599447,0.463021 -1.761133,0.463021 -0.438217,0 -0.93431,-0.09922 -0.49196,-0.09922 -1.021127,-0.293523 v -0.859896 q 0.508496,0.285254 0.996322,0.429948 0.487826,0.144694 0.959115,0.144694 0.715202,0 1.103809,-0.28112 0.388607,-0.281119 0.388607,-0.802018 0,-0.454753 -0.28112,-0.711068 -0.276986,-0.256315 -0.91364,-0.384473 l -0.508496,-0.09922 q -0.93431,-0.186035 -1.351856,-0.58291 -0.417546,-0.396875 -0.417546,-1.103809 0,-0.818555 0.574642,-1.289844 0.578777,-0.47129 1.591635,-0.47129 0.434082,0 0.884701,0.07855 0.450619,0.07855 0.921908,0.235644 z"/>
                            <path id="path63408" gorn="0.5.0.0.16.0.0.1"  d="m 36.347435,71.581159 v 4.799709 h 1.008725 q 1.277442,0 1.86862,-0.578777 0.595313,-0.578776 0.595313,-1.827279 0,-1.240235 -0.595313,-1.814877 -0.591178,-0.578776 -1.86862,-0.578776 z m -0.835091,-0.686263 h 1.715658 q 1.794207,0 2.633432,0.748275 0.839226,0.74414 0.839226,2.331641 0,1.595769 -0.84336,2.344044 -0.84336,0.748275 -2.629298,0.748275 h -1.715658 z"/>
                            <path id="path63410" gorn="0.5.0.0.16.0.0.2"  d="m 44.537119,71.461269 q -0.909505,0 -1.44694,0.677995 -0.533301,0.677996 -0.533301,1.84795 0,1.165821 0.533301,1.843816 0.537435,0.677995 1.44694,0.677995 0.909506,0 1.438673,-0.677995 0.533301,-0.677995 0.533301,-1.843816 0,-1.169954 -0.533301,-1.84795 -0.529167,-0.677995 -1.438673,-0.677995 z m 0,-0.677995 q 1.298113,0 2.075327,0.872299 0.777214,0.868164 0.777214,2.331641 0,1.459343 -0.777214,2.331642 -0.777214,0.868164 -2.075327,0.868164 -1.302246,0 -2.083594,-0.868164 -0.777214,-0.868164 -0.777214,-2.331642 0,-1.463477 0.777214,-2.331641 0.781348,-0.872299 2.083594,-0.872299 z"/>
                        </g>
                    </g>
                </g>
                <g  transform="matrix(0.19576779,0,0,0.19576779,3.2187787,83.696075)">
                    <g >
                        <g id="text53677" font-size="2.38948" stroke="#848484" stroke-width="0.3" gorn="0.5.0.0.17.0.0"  aria-label="SCL" fill="#848484">
                            <path id="path63413" gorn="0.5.0.0.17.0.0.0"  d="m 60.233041,67.105509 v 0.81442 q -0.475424,-0.227376 -0.897104,-0.338997 -0.421679,-0.111621 -0.81442,-0.111621 -0.68213,0 -1.0542,0.264583 -0.367936,0.264584 -0.367936,0.752409 0,0.409278 0.243912,0.620118 0.248047,0.206706 0.934311,0.334863 l 0.504362,0.103353 q 0.93431,0.177767 1.376661,0.628386 0.446484,0.446484 0.446484,1.198894 0,0.897103 -0.603581,1.360124 -0.599447,0.463021 -1.761133,0.463021 -0.438217,0 -0.934311,-0.09922 -0.491959,-0.09922 -1.021126,-0.293522 v -0.859896 q 0.508496,0.285254 0.996322,0.429948 0.487825,0.144694 0.959115,0.144694 0.715202,0 1.103809,-0.28112 0.388607,-0.28112 0.388607,-0.802019 0,-0.454753 -0.28112,-0.711068 -0.276986,-0.256315 -0.91364,-0.384473 l -0.508496,-0.09922 q -0.934311,-0.186036 -1.351856,-0.582911 -0.417546,-0.396875 -0.417546,-1.103809 0,-0.818555 0.574642,-1.289844 0.578776,-0.471289 1.591635,-0.471289 0.434082,0 0.884701,0.07855 0.450618,0.07855 0.921908,0.235646 z"/>
                            <path id="path63415" gorn="0.5.0.0.17.0.0.1"  d="m 66.5293,67.37836 v 0.880567 q -0.42168,-0.392741 -0.901238,-0.587044 -0.475423,-0.194304 -1.012858,-0.194304 -1.058334,0 -1.620574,0.649056 -0.56224,0.644922 -0.56224,1.868621 0,1.219564 0.56224,1.86862 0.56224,0.644923 1.620574,0.644923 0.537435,0 1.012858,-0.194304 0.479558,-0.194303 0.901238,-0.587044 v 0.872298 q -0.438217,0.297656 -0.930177,0.446485 -0.487825,0.148828 -1.033529,0.148828 -1.401465,0 -2.207618,-0.855762 -0.806152,-0.859896 -0.806152,-2.344044 0,-1.488282 0.806152,-2.344044 0.806153,-0.859896 2.207618,-0.859896 0.553972,0 1.041798,0.148828 0.491959,0.144694 0.921908,0.438216 z"/>
                            <path id="path63417" gorn="0.5.0.0.17.0.0.2"  d="m 67.819143,66.902937 h 0.835092 v 5.469436 h 3.005502 v 0.702799 h -3.840594 z"/>
                        </g>
                    </g>
                </g>
                <g  transform="matrix(0.19576779,0,0,0.19576779,12.018697,75.224466)">
                    <g >
                        <g id="text57049" font-size="2.38948" stroke="#848484" stroke-width="0.3" gorn="0.5.0.0.18.0.0"  aria-label="VCC" fill="#848484">
                            <path id="path63392" gorn="0.5.0.0.18.0.0.0"  d="m 13.733633,129.3226 -2.356446,-6.17223 h 0.872298 l 1.955437,5.19658 1.959571,-5.19658 h 0.868165 l -2.352312,6.17223 z"/>
                            <path id="path63394" gorn="0.5.0.0.18.0.0.1"  d="m 22.555837,123.62579 v 0.88057 q -0.42168,-0.39275 -0.901237,-0.58705 -0.475424,-0.1943 -1.012859,-0.1943 -1.058334,0 -1.620573,0.64905 -0.56224,0.64493 -0.56224,1.86862 0,1.21957 0.56224,1.86863 0.562239,0.64492 1.620573,0.64492 0.537435,0 1.012859,-0.19431 0.479557,-0.1943 0.901237,-0.58704 v 0.8723 q -0.438216,0.29765 -0.930176,0.44648 -0.487826,0.14883 -1.033529,0.14883 -1.401466,0 -2.207618,-0.85576 -0.806153,-0.8599 -0.806153,-2.34405 0,-1.48828 0.806153,-2.34404 0.806152,-0.8599 2.207618,-0.8599 0.553971,0 1.041797,0.14883 0.49196,0.1447 0.921908,0.43822 z"/>
                            <path id="path63396" gorn="0.5.0.0.18.0.0.2"  d="m 28.467623,123.62579 v 0.88057 q -0.42168,-0.39275 -0.901237,-0.58705 -0.475424,-0.1943 -1.012859,-0.1943 -1.058333,0 -1.620573,0.64905 -0.56224,0.64493 -0.56224,1.86862 0,1.21957 0.56224,1.86863 0.56224,0.64492 1.620573,0.64492 0.537435,0 1.012859,-0.19431 0.479557,-0.1943 0.901237,-0.58704 v 0.8723 q -0.438216,0.29765 -0.930176,0.44648 -0.487826,0.14883 -1.033529,0.14883 -1.401466,0 -2.207618,-0.85576 -0.806153,-0.8599 -0.806153,-2.34405 0,-1.48828 0.806153,-2.34404 0.806152,-0.8599 2.207618,-0.8599 0.553971,0 1.041797,0.14883 0.49196,0.1447 0.921908,0.43822 z"/>
                        </g>
                    </g>
                </g>
                <g  transform="matrix(0.19576779,0,0,0.19576779,11.219914,75.09871)">
                    <g >
                        <g id="text58673" font-size="2.38948" stroke="#848484" stroke-width="0.3" gorn="0.5.0.0.19.0.0"  aria-label="GND " fill="#848484">
                            <path id="path63385" gorn="0.5.0.0.19.0.0.0"  d="m 19.953679,142.05896 v -1.65778 h -1.364258 v -0.68626 h 2.191081 v 2.64997 q -0.483691,0.34313 -1.066602,0.5209 -0.58291,0.17363 -1.244369,0.17363 -1.44694,0 -2.265495,-0.84336 -0.814421,-0.84749 -0.814421,-2.35645 0,-1.51308 0.814421,-2.35644 0.818555,-0.8475 2.265495,-0.8475 0.603581,0 1.14515,0.14883 0.545704,0.14883 1.004591,0.43822 v 0.88883 q -0.463021,-0.39274 -0.98392,-0.59118 -0.520899,-0.19843 -1.095541,-0.19843 -1.132748,0 -1.703256,0.63252 -0.566374,0.63252 -0.566374,1.88515 0,1.24851 0.566374,1.88103 0.570508,0.63252 1.703256,0.63252 0.442351,0 0.789616,-0.0744 0.347266,-0.0786 0.624252,-0.23978 z"/>
                            <path id="path63387" gorn="0.5.0.0.19.0.0.1"  d="m 22.305991,136.76729 h 1.12448 l 2.736785,5.16352 v -5.16352 h 0.810286 v 6.17224 h -1.124479 l -2.736785,-5.16351 v 5.16351 h -0.810287 z"/>
                            <path id="path63389" gorn="0.5.0.0.19.0.0.2"  d="m 29.474548,137.45356 v 4.79971 h 1.008725 q 1.277441,0 1.86862,-0.57878 0.595313,-0.57878 0.595313,-1.82728 0,-1.24023 -0.595313,-1.81488 -0.591179,-0.57877 -1.86862,-0.57877 z m -0.835091,-0.68627 h 1.715658 q 1.794206,0 2.633432,0.74828 0.839226,0.74414 0.839226,2.33164 0,1.59577 -0.84336,2.34404 -0.84336,0.74828 -2.629298,0.74828 h -1.715658 z"/>
                        </g>
                    </g>
                </g>
            </g>
        </g>
    </g>
</svg>
