<?xml version='1.0' encoding='UTF-8' standalone='no'?>
<!-- Created with Fritzing (http://www.fritzing.org/) -->
<svg xmlns="http://www.w3.org/2000/svg" id="svg79" x="0in" y="0in" viewBox="0 0 695.2383 986.29304" gorn="0"  version="1.2" width="0.69523829in" height="0.98629308in">
    <defs id="defs83" />
    <desc id="desc2" >
        <referenceFile >generic_ic_dip_10_schem.svg</referenceFile>
    </desc>
    <rect id="rect4" x="200" y="199.68983" stroke="#000000" stroke-linecap="round" stroke-width="12.5" stroke-linejoin="round" gorn="0.2"  fill="none" width="293.75" height="587.5"/>
    <g  transform="translate(0,193.43984)">
        <g >
            <g >
                <g >
                    <g >
                        <g >
                            <g >
                                <g >
                                    <g >
                                        <g >
                                            <g id="label" gorn="0.3.0.0.0.0.0.0.0.0.0.0"  aria-label="Piano" style="font-size:48.6111px;font-family:Droid Sans;text-anchor:middle">
                                                <path id="path902" gorn="0.3.0.0.0.0.0.0.0.0.0.0.0"  d="m 226.56531,136.60836 v 13.31583 h 6.02892 q 3.34676,0 5.17442,-1.73272 1.82767,-1.73272 1.82767,-4.93706 0,-3.18061 -1.82767,-4.91333 -1.82766,-1.73272 -5.17442,-1.73272 z m -4.79464,-3.94016 h 10.82356 q 5.95771,0 8.9959,2.70589 3.06193,2.68216 3.06193,7.88032 0,5.24563 -3.06193,7.92778 -3.03819,2.68216 -8.9959,2.68216 h -6.02892 v 14.24153 h -4.79464 z"/>
                                                <path id="path904" gorn="0.3.0.0.0.0.0.0.0.0.0.0.1"  d="m 249.82648,141.52169 h 4.36741 v 26.58419 h -4.36741 z m 0,-10.34885 h 4.36741 v 5.53046 h -4.36741 z"/>
                                                <path id="path906" gorn="0.3.0.0.0.0.0.0.0.0.0.0.2"  d="m 275.41377,154.74258 q -5.2931,0 -7.33439,1.21053 -2.04128,1.21053 -2.04128,4.13004 0,2.32612 1.51909,3.7028 1.54284,1.35294 4.17752,1.35294 3.63159,0 5.81529,-2.56347 2.20744,-2.58721 2.20744,-6.85967 v -0.97317 z m 8.71107,-1.80393 v 15.16723 h -4.3674 v -4.0351 q -1.49536,2.42106 -3.72653,3.58412 -2.23118,1.13932 -5.45926,1.13932 -4.08257,0 -6.50363,-2.27864 -2.39733,-2.30238 -2.39733,-6.1476 0,-4.48608 2.99072,-6.76473 3.01446,-2.27864 8.97217,-2.27864 h 6.12386 v -0.42725 q 0,-3.01446 -1.99382,-4.65223 -1.97007,-1.66151 -5.55419,-1.66151 -2.27865,0 -4.43861,0.54592 -2.15997,0.54593 -4.15378,1.63778 v -4.0351 q 2.39732,-0.9257 4.65223,-1.37669 2.25491,-0.47471 4.39114,-0.47471 5.76782,0 8.61613,2.99072 2.8483,2.99072 2.8483,9.06711 z"/>
                                                <path id="path908" gorn="0.3.0.0.0.0.0.0.0.0.0.0.3"  d="m 315.21885,152.06042 v 16.04546 h -4.3674 v -15.90304 q 0,-3.77401 -1.47163,-5.64915 -1.47162,-1.87513 -4.41487,-1.87513 -3.53665,0 -5.57793,2.25491 -2.04129,2.25491 -2.04129,6.14759 v 15.02482 h -4.39114 v -26.58419 h 4.39114 v 4.13004 q 1.56657,-2.39732 3.67906,-3.58412 2.13623,-1.18679 4.91333,-1.18679 4.58103,0 6.93088,2.8483 2.34985,2.82457 2.34985,8.3313 z"/>
                                                <path id="path910" gorn="0.3.0.0.0.0.0.0.0.0.0.0.4"  d="m 334.23131,144.58362 q -3.51292,0 -5.5542,2.75336 -2.04129,2.72963 -2.04129,7.50054 0,4.77091 2.01755,7.52428 2.04129,2.72962 5.57794,2.72962 3.48917,0 5.53046,-2.75336 2.04128,-2.75336 2.04128,-7.50054 0,-4.72344 -2.04128,-7.47681 -2.04129,-2.77709 -5.53046,-2.77709 z m 0,-3.7028 q 5.69661,0 8.94843,3.7028 3.25181,3.70279 3.25181,10.2539 0,6.52737 -3.25181,10.2539 -3.25182,3.7028 -8.94843,3.7028 -5.72035,0 -8.97217,-3.7028 -3.22808,-3.72653 -3.22808,-10.2539 0,-6.55111 3.22808,-10.2539 3.25182,-3.7028 8.97217,-3.7028 z"/>
                                            </g>
                                        </g>
                                    </g>
                                </g>
                            </g>
                        </g>
                    </g>
                </g>
            </g>
        </g>
    </g>
    <line id="line7" x2="346.875" y1="981.43195" y2="786.29309" stroke="#787878" stroke-linecap="round" x1="346.875" stroke-width="9.7222" stroke-linejoin="round" gorn="0.4"  fill="none"/>
    <g  transform="rotate(-90)">
        <g >
            <g >
                <g >
                    <g >
                        <g >
                            <g >
                                <g >
                                    <g >
                                        <g >
                                            <rect id="connector0pin" connectorName="1" x="-986.36182" y="342.02045" stroke-width="0" gorn="0.5.0.0.0.0.0.0.0.0.0.0"  fill="none" style="fill:none;fill-opacity:1" width="200" height="9.7222004"/>
                                        </g>
                                    </g>
                                </g>
                            </g>
                        </g>
                    </g>
                </g>
            </g>
        </g>
    </g>
    <rect id="connector0terminal" x="349.79999" y="298.29083" stroke="none" stroke-width="0" gorn="0.6"  fill="none" width="0.40000001" height="0.0194444"/>
    <rect x="0" y="288.57874" stroke-width="0"  fill="none" width="0" height="9.7222004"/>
    <g  transform="translate(0,193.43984)">
        <g >
            <g >
                <g >
                    <g >
                        <g >
                            <g >
                                <g >
                                    <g >
                                        <g >
                                            <g id="label0" gorn="0.8.0.0.0.0.0.0.0.0.0.0"  aria-label="GND" style="font-size:48.6111px;font-family:Droid Sans;fill:#8c8c8c">
                                                <path id="path895" gorn="0.8.0.0.0.0.0.0.0.0.0.0.0"  d="m 320.1484,567.47227 v -9.51809 h -7.83284 v -3.94016 h 12.58002 v 15.21471 q -2.7771,1.97008 -6.12386,2.99072 -3.34676,0.99691 -7.1445,0.99691 -8.30756,0 -13.00727,-4.84213 -4.67597,-4.86585 -4.67597,-13.52945 0,-8.68734 4.67597,-13.52946 4.69971,-4.86586 13.00727,-4.86586 3.46544,0 6.57484,0.8545 3.13314,0.85449 5.76782,2.516 v 5.10322 q -2.65842,-2.25491 -5.64914,-3.39423 -2.99072,-1.13933 -6.29001,-1.13933 -6.50363,0 -9.77919,3.63159 -3.25181,3.63159 -3.25181,10.82357 0,7.16824 3.25181,10.79983 3.27556,3.63159 9.77919,3.63159 2.53974,0 4.53355,-0.42725 1.99382,-0.45098 3.58412,-1.37668 z"/>
                                                <path id="path897" gorn="0.8.0.0.0.0.0.0.0.0.0.0.1"  d="m 333.65412,537.09033 h 6.45616 l 15.71316,29.64613 v -29.64613 h 4.65224 v 35.43769 h -6.45617 l -15.71315,-29.64613 v 29.64613 h -4.65224 z"/>
                                                <path id="path899" gorn="0.8.0.0.0.0.0.0.0.0.0.0.2"  d="m 374.81215,541.03049 v 27.55737 h 5.79156 q 7.33439,0 10.72862,-3.32303 3.41797,-3.32302 3.41797,-10.49126 0,-7.12077 -3.41797,-10.42005 -3.39423,-3.32303 -10.72862,-3.32303 z m -4.79465,-3.94016 h 9.8504 q 10.30137,0 15.11976,4.2962 4.81838,4.27246 4.81838,13.38704 0,9.16205 -4.84212,13.45825 -4.84212,4.2962 -15.09602,4.2962 h -9.8504 z"/>
                                            </g>
                                        </g>
                                    </g>
                                </g>
                            </g>
                        </g>
                    </g>
                </g>
            </g>
        </g>
    </g>
    <g  transform="translate(0,193.43984)">
        <g >
            <g >
                <g >
                    <g >
                        <g >
                            <g >
                                <g >
                                    <g >
                                        <g >
                                            <g id="text13" class="text" font-size="385.802" stroke-width="0" gorn="0.9.0.0.0.0.0.0.0.0.0.0"  aria-label="1" fill="#8c8c8c" style="font-family:Droid Sans;text-anchor:middle;">
                                                <path id="path892" gorn="0.9.0.0.0.0.0.0.0.0.0.0.0"  d="m 316.57327,709.40465 h 5.59488 v -19.31083 l -6.08655,1.2207 v -3.11957 l 6.05264,-1.2207 h 3.42475 v 22.4304 h 5.59489 v 2.88222 h -14.58061 z"/>
                                            </g>
                                        </g>
                                    </g>
                                </g>
                            </g>
                        </g>
                    </g>
                </g>
            </g>
        </g>
    </g>
    <line id="line15" x2="346.875" y1="4.8611002" y2="200" stroke="#787878" stroke-linecap="round" x1="346.875" stroke-width="9.7222" stroke-linejoin="round" gorn="0.10"  fill="none"/>
    <g  transform="rotate(90)">
        <g >
            <g >
                <g >
                    <g >
                        <g >
                            <g >
                                <g >
                                    <g >
                                        <g >
                                            <rect id="connector1pin" connectorName="2" x="0.081170946" y="-351.77652" stroke-width="0" gorn="0.11.0.0.0.0.0.0.0.0.0.0"  fill="none" style="fill:none;fill-opacity:1" width="200" height="9.7222004"/>
                                        </g>
                                    </g>
                                </g>
                            </g>
                        </g>
                    </g>
                </g>
            </g>
        </g>
    </g>
    <rect id="connector1terminal" x="0" y="388.57886" stroke-width="0" gorn="0.12"  fill="none" width="0" height="9.7222004"/>
    <g  transform="translate(0,193.43984)">
        <g >
            <g >
                <g >
                    <g >
                        <g >
                            <g >
                                <g >
                                    <g >
                                        <g >
                                            <g id="label1" gorn="0.13.0.0.0.0.0.0.0.0.0.0"  aria-label="VCC" style="font-size:48.6111px;font-family:Droid Sans;fill:#8c8c8c">
                                                <path id="path875" gorn="0.13.0.0.0.0.0.0.0.0.0.0.0"  d="M 311.34237,58.351898 297.81291,22.914217 h 5.00827 l 11.22708,29.836012 11.25081,-29.836012 h 4.98454 l -13.50573,35.437681 z"/>
                                                <path id="path877" gorn="0.13.0.0.0.0.0.0.0.0.0.0.1"  d="m 361.99475,25.643844 v 5.055744 q -2.42106,-2.254909 -5.17442,-3.370496 -2.72963,-1.115587 -5.81529,-1.115587 -6.07639,0 -9.30447,3.726535 -3.22808,3.702798 -3.22808,10.728621 0,7.002087 3.22808,10.728622 3.22808,3.702798 9.30447,3.702798 3.08566,0 5.81529,-1.115586 2.75336,-1.115587 5.17442,-3.370496 v 5.008272 q -2.516,1.708984 -5.34057,2.563476 -2.80084,0.854492 -5.93398,0.854492 -8.04646,0 -12.67496,-4.913329 -4.6285,-4.937065 -4.6285,-13.458249 0,-8.544919 4.6285,-13.458248 4.6285,-4.937065 12.67496,-4.937065 3.18061,0 5.98145,0.854492 2.82457,0.830756 5.2931,2.516004 z"/>
                                                <path id="path879" gorn="0.13.0.0.0.0.0.0.0.0.0.0.2"  d="m 395.93708,25.643844 v 5.055744 q -2.42106,-2.254909 -5.17443,-3.370496 -2.72962,-1.115587 -5.81529,-1.115587 -6.07639,0 -9.30447,3.726535 -3.22808,3.702798 -3.22808,10.728621 0,7.002087 3.22808,10.728622 3.22808,3.702798 9.30447,3.702798 3.08567,0 5.81529,-1.115586 2.75337,-1.115587 5.17443,-3.370496 v 5.008272 q -2.51601,1.708984 -5.34058,2.563476 -2.80083,0.854492 -5.93397,0.854492 -8.04647,0 -12.67496,-4.913329 -4.6285,-4.937065 -4.6285,-13.458249 0,-8.544919 4.6285,-13.458248 4.62849,-4.937065 12.67496,-4.937065 3.18061,0 5.98144,0.854492 2.82457,0.830756 5.29311,2.516004 z"/>
                                            </g>
                                        </g>
                                    </g>
                                </g>
                            </g>
                        </g>
                    </g>
                </g>
            </g>
        </g>
    </g>
    <g  transform="translate(0,193.43984)">
        <g >
            <g >
                <g >
                    <g >
                        <g >
                            <g >
                                <g >
                                    <g >
                                        <g >
                                            <g id="text20" class="text" font-size="385.802" stroke-width="0" gorn="0.14.0.0.0.0.0.0.0.0.0.0"  aria-label="2" fill="#8c8c8c" style="font-family:Droid Sans;text-anchor:middle;">
                                                <path id="path878" gorn="0.14.0.0.0.0.0.0.0.0.0.0.0"  d="m 368.38464,-98.172543 h 11.95271 v 2.882214 h -16.07258 v -2.882214 q 1.94974,-2.017547 5.30667,-5.408387 3.37388,-3.4078 4.23855,-4.39114 1.64455,-1.84801 2.28881,-3.11957 0.66122,-1.28852 0.66122,-2.52618 0,-2.01755 -1.42416,-3.28911 -1.40719,-1.27157 -3.67906,-1.27157 -1.61065,0 -3.40779,0.55949 -1.78019,0.55949 -3.8147,1.69542 v -3.45866 q 2.06842,-0.83075 3.86556,-1.25461 1.79715,-0.42385 3.28912,-0.42385 3.93337,0 6.27305,1.96669 2.33968,1.96668 2.33968,5.2558 0,1.55978 -0.5934,2.96698 -0.57644,1.39025 -2.11927,3.28912 -0.42386,0.49167 -2.69572,2.8483 -2.27186,2.33968 -6.40869,6.561277 z"/>
                                            </g>
                                        </g>
                                    </g>
                                </g>
                            </g>
                        </g>
                    </g>
                </g>
            </g>
        </g>
    </g>
    <line id="line22" x2="202.15501" y1="439.62344" y2="439.62344" stroke="#787878" stroke-linecap="round" x1="7.0161133" stroke-width="9.7222" stroke-linejoin="round" gorn="0.15"  fill="none"/>
    <rect id="connector2pin" connectorName="3" x="0" y="534.69318" stroke-width="0" gorn="0.16"  fill="none" style="fill:none;fill-opacity:1" width="200" height="9.7222004"/>
    <rect id="connector2terminal" x="0" y="488.57886" stroke-width="0" gorn="0.17"  fill="none" width="0" height="9.7222004"/>
    <g  transform="translate(0,193.43984)">
        <g >
            <g >
                <g >
                    <g >
                        <g >
                            <g >
                                <g >
                                    <g >
                                        <g >
                                            <g id="label2" gorn="0.18.0.0.0.0.0.0.0.0.0.0"  aria-label="SCL" style="font-size:48.6111px;font-family:Droid Sans;fill:#8c8c8c">
                                                <path id="path861" gorn="0.18.0.0.0.0.0.0.0.0.0.0.0"  d="m 244.27514,326.44474 v 4.67597 q -2.72963,-1.30548 -5.15069,-1.94635 -2.42106,-0.64086 -4.67597,-0.64086 -3.91642,0 -6.05265,1.51909 -2.11249,1.5191 -2.11249,4.31993 0,2.34986 1.40041,3.56039 1.42416,1.18679 5.36431,1.9226 l 2.89578,0.5934 q 5.36431,1.02064 7.90405,3.60786 2.56348,2.56347 2.56348,6.8834 0,5.15069 -3.46544,7.80911 -3.44171,2.65842 -10.11149,2.65842 -2.516,0 -5.36431,-0.56966 -2.82457,-0.56966 -5.86276,-1.68525 v -4.93706 q 2.91951,1.63777 5.72034,2.46853 2.80084,0.83076 5.50673,0.83076 4.10631,0 6.33748,-1.61404 2.23118,-1.61405 2.23118,-4.60477 0,-2.61095 -1.61404,-4.08257 -1.59031,-1.47163 -5.24564,-2.20744 l -2.91951,-0.56966 q -5.36431,-1.06811 -7.76164,-3.34676 -2.39732,-2.27864 -2.39732,-6.33748 0,-4.69971 3.29929,-7.4056 3.32302,-2.70589 9.13832,-2.70589 2.49226,0 5.07948,0.45098 2.58721,0.45098 5.2931,1.35295 z"/>
                                                <path id="path863" gorn="0.18.0.0.0.0.0.0.0.0.0.0.1"  d="m 280.4249,328.01131 v 5.05574 q -2.42106,-2.25491 -5.17443,-3.3705 -2.72962,-1.11558 -5.81529,-1.11558 -6.07639,0 -9.30447,3.72653 -3.22808,3.7028 -3.22808,10.72862 0,7.00209 3.22808,10.72863 3.22808,3.70279 9.30447,3.70279 3.08567,0 5.81529,-1.11558 2.75337,-1.11559 5.17443,-3.3705 v 5.00827 q -2.51601,1.70899 -5.34058,2.56348 -2.80083,0.85449 -5.93397,0.85449 -8.04647,0 -12.67496,-4.91333 -4.6285,-4.93706 -4.6285,-13.45825 0,-8.54492 4.6285,-13.45825 4.62849,-4.93706 12.67496,-4.93706 3.18061,0 5.98144,0.85449 2.82457,0.83076 5.29311,2.51601 z"/>
                                                <path id="path865" gorn="0.18.0.0.0.0.0.0.0.0.0.0.2"  d="m 287.8305,325.28168 h 4.79465 v 31.40258 h 17.25599 v 4.0351 H 287.8305 Z"/>
                                            </g>
                                        </g>
                                    </g>
                                </g>
                            </g>
                        </g>
                    </g>
                </g>
            </g>
        </g>
    </g>
    <g  transform="translate(0,193.43984)">
        <g >
            <g >
                <g >
                    <g >
                        <g >
                            <g >
                                <g >
                                    <g >
                                        <g >
                                            <g id="text27" class="text" font-size="385.802" stroke-width="0" gorn="0.19.0.0.0.0.0.0.0.0.0.0"  aria-label="3" fill="#8c8c8c" style="font-family:Droid Sans;text-anchor:middle;">
                                                <path id="path858" gorn="0.19.0.0.0.0.0.0.0.0.0.0.0"  d="m 104.97236,368.78876 q 2.45835,0.52558 3.83164,2.18709 1.39025,1.66151 1.39025,4.10292 0,3.74688 -2.57704,5.79833 -2.57704,2.05146 -7.32421,2.05146 -1.593698,0 -3.289118,-0.32213 -1.678465,-0.30517 -3.47561,-0.93248 v -3.30607 q 1.424152,0.83076 3.119572,1.25461 1.69542,0.42386 3.543426,0.42386 3.2213,0 4.89977,-1.27157 1.69542,-1.27156 1.69542,-3.69601 0,-2.23796 -1.57675,-3.49257 -1.55978,-1.27156 -4.35722,-1.27156 h -2.950035 v -2.8144 h 3.085665 q 2.52617,0 3.86556,-1.0003 1.33938,-1.01725 1.33938,-2.91612 0,-1.94973 -1.39025,-2.98394 -1.37329,-1.05116 -3.95032,-1.05116 -1.407203,0 -3.017852,0.30518 -1.610649,0.30517 -3.543427,0.94943 v -3.05175 q 1.949733,-0.54254 3.645152,-0.8138 1.712374,-0.27127 3.221297,-0.27127 3.89947,0 6.17133,1.78019 2.27186,1.76324 2.27186,4.78108 0,2.10232 -1.20375,3.56038 -1.20374,1.44111 -3.42474,2.0006 z"/>
                                            </g>
                                        </g>
                                    </g>
                                </g>
                            </g>
                        </g>
                    </g>
                </g>
            </g>
        </g>
    </g>
    <line id="line29" x2="202.27519" y1="539.62341" y2="539.62341" stroke="#787878" stroke-linecap="round" x1="7.1363006" stroke-width="9.7222" stroke-linejoin="round" gorn="0.20"  fill="none"/>
    <rect id="connector3pin" connectorName="4" x="0" y="434.76624" stroke-width="0" gorn="0.21"  fill="none" style="fill:none;fill-opacity:1" width="200" height="9.7222004"/>
    <rect id="connector3terminal" x="0" y="588.57886" stroke-width="0" gorn="0.22"  fill="none" width="0" height="9.7222004"/>
    <g  transform="translate(0,193.43984)">
        <g >
            <g >
                <g >
                    <g >
                        <g >
                            <g >
                                <g >
                                    <g >
                                        <g >
                                            <g id="label3" gorn="0.23.0.0.0.0.0.0.0.0.0.0"  aria-label="SDO" style="font-size:48.6111px;font-family:Droid Sans;fill:#8c8c8c">
                                                <path id="path868" gorn="0.23.0.0.0.0.0.0.0.0.0.0.0"  d="m 243.15214,227.22355 v 4.67597 q -2.72963,-1.30548 -5.15069,-1.94635 -2.42106,-0.64087 -4.67597,-0.64087 -3.91642,0 -6.05265,1.5191 -2.1125,1.5191 -2.1125,4.31993 0,2.34986 1.40042,3.56039 1.42415,1.18679 5.36431,1.9226 l 2.89578,0.5934 q 5.36431,1.02064 7.90405,3.60786 2.56348,2.56347 2.56348,6.8834 0,5.15069 -3.46544,7.80911 -3.44171,2.65842 -10.11149,2.65842 -2.516,0 -5.36431,-0.56966 -2.82457,-0.56966 -5.86277,-1.68525 v -4.93706 q 2.91952,1.63777 5.72035,2.46853 2.80084,0.83075 5.50673,0.83075 4.10631,0 6.33748,-1.61404 2.23117,-1.61404 2.23117,-4.60476 0,-2.61095 -1.61404,-4.08257 -1.5903,-1.47163 -5.24563,-2.20744 l -2.91951,-0.56966 q -5.36431,-1.06812 -7.76164,-3.34676 -2.39732,-2.27865 -2.39732,-6.33748 0,-4.69971 3.29929,-7.4056 3.32302,-2.70589 9.13831,-2.70589 2.49227,0 5.07948,0.45098 2.58722,0.45098 5.29311,1.35295 z"/>
                                                <path id="path870" gorn="0.23.0.0.0.0.0.0.0.0.0.0.1"  d="m 257.55982,230.00065 v 27.55736 h 5.79156 q 7.33439,0 10.72862,-3.32302 3.41797,-3.32303 3.41797,-10.49127 0,-7.12076 -3.41797,-10.42005 -3.39423,-3.32302 -10.72862,-3.32302 z m -4.79465,-3.94016 h 9.8504 q 10.30137,0 15.11976,4.29619 4.81838,4.27246 4.81838,13.38704 0,9.16206 -4.84212,13.45825 -4.84212,4.2962 -15.09602,4.2962 h -9.8504 z"/>
                                                <path id="path872" gorn="0.23.0.0.0.0.0.0.0.0.0.0.2"  d="m 304.58061,229.3123 q -5.22189,0 -8.30756,3.89269 -3.06193,3.89269 -3.06193,10.60994 0,6.69352 3.06193,10.58621 3.08567,3.89268 8.30756,3.89268 5.2219,0 8.26009,-3.89268 3.06193,-3.89269 3.06193,-10.58621 0,-6.71725 -3.06193,-10.60994 -3.03819,-3.89269 -8.26009,-3.89269 z m 0,-3.89268 q 7.45307,0 11.91542,5.00827 4.46235,4.98454 4.46235,13.38704 0,8.37877 -4.46235,13.38704 -4.46235,4.98454 -11.91542,4.98454 -7.4768,0 -11.96289,-4.98454 -4.46234,-4.98453 -4.46234,-13.38704 0,-8.4025 4.46234,-13.38704 4.48609,-5.00827 11.96289,-5.00827 z"/>
                                            </g>
                                        </g>
                                    </g>
                                </g>
                            </g>
                        </g>
                    </g>
                </g>
            </g>
        </g>
    </g>
    <g  transform="translate(0,193.43984)">
        <g >
            <g >
                <g >
                    <g >
                        <g >
                            <g >
                                <g >
                                    <g >
                                        <g >
                                            <g id="text34" class="text" font-size="385.802" stroke-width="0" gorn="0.24.0.0.0.0.0.0.0.0.0.0"  aria-label="4" fill="#8c8c8c" style="font-family:Droid Sans;text-anchor:middle;">
                                                <path id="path855" gorn="0.24.0.0.0.0.0.0.0.0.0.0.0"  d="m 102.95264,213.86021 -8.646644,13.5125 h 8.646644 z m -0.89858,-2.98394 h 4.30637 v 16.49644 h 3.61125 v 2.8483 h -3.61125 v 5.96788 h -3.40779 v -5.96788 H 91.525507 v -3.30607 z"/>
                                            </g>
                                        </g>
                                    </g>
                                </g>
                            </g>
                        </g>
                    </g>
                </g>
            </g>
        </g>
    </g>
    <line id="line36" x2="690.3772" y1="493.43985" y2="493.43985" stroke="#787878" stroke-linecap="round" x1="495.23825" stroke-width="9.7222" stroke-linejoin="round" gorn="0.25"  fill="none"/>
    <g  transform="scale(-1)">
        <g >
            <g >
                <g >
                    <g >
                        <g >
                            <g >
                                <g >
                                    <g >
                                        <g >
                                            <rect id="connector4pin" connectorName="5" x="-695.21893" y="-498.26862" stroke-width="0" gorn="0.26.0.0.0.0.0.0.0.0.0.0"  fill="none" style="fill:none;fill-opacity:1" width="200" height="9.7222004"/>
                                        </g>
                                    </g>
                                </g>
                            </g>
                        </g>
                    </g>
                </g>
            </g>
        </g>
    </g>
    <rect id="connector4terminal" x="0" y="688.57886" stroke-width="0" gorn="0.27"  fill="none" width="0" height="9.7222004"/>
    <g  transform="translate(0,193.43984)">
        <g >
            <g >
                <g >
                    <g >
                        <g >
                            <g >
                                <g >
                                    <g >
                                        <g >
                                            <g id="label4" gorn="0.28.0.0.0.0.0.0.0.0.0.0"  aria-label="RGB" style="font-size:48.6111px;font-family:Droid Sans;fill:#8c8c8c">
                                                <path id="path882" gorn="0.28.0.0.0.0.0.0.0.0.0.0.0"  d="m 397.55236,302.31725 q 1.54284,0.52219 2.99072,2.23117 1.47163,1.70899 2.94325,4.69971 l 4.86586,9.68424 h -5.15069 l -4.53355,-9.09084 q -1.75646,-3.56039 -3.41797,-4.72344 -1.63777,-1.16306 -4.48608,-1.16306 h -5.2219 v 14.97734 h -4.79465 v -35.43768 h 10.82357 q 6.07639,0 9.06711,2.53974 2.99072,2.53974 2.99072,7.66669 0,3.34676 -1.56657,5.5542 -1.54283,2.20744 -4.50982,3.06193 z M 385.542,287.43485 v 12.58002 h 6.02892 q 3.46544,0 5.22189,-1.5903 1.7802,-1.61404 1.7802,-4.72345 0,-3.1094 -1.7802,-4.67597 -1.75645,-1.5903 -5.22189,-1.5903 z"/>
                                                <path id="path884" gorn="0.28.0.0.0.0.0.0.0.0.0.0.1"  d="m 438.68666,313.87663 v -9.51809 h -7.83285 v -3.94016 h 12.58002 v 15.2147 q -2.77709,1.97008 -6.12385,2.99073 -3.34676,0.9969 -7.14451,0.9969 -8.30756,0 -13.00726,-4.84212 -4.67597,-4.86585 -4.67597,-13.52945 0,-8.68734 4.67597,-13.52946 4.6997,-4.86586 13.00726,-4.86586 3.46544,0 6.57484,0.85449 3.13314,0.8545 5.76783,2.51601 v 5.10321 q -2.65842,-2.2549 -5.64915,-3.39423 -2.99072,-1.13932 -6.29001,-1.13932 -6.50363,0 -9.77918,3.63159 -3.25182,3.63159 -3.25182,10.82357 0,7.16823 3.25182,10.79983 3.27555,3.63159 9.77918,3.63159 2.53974,0 4.53356,-0.42725 1.99381,-0.45098 3.58412,-1.37668 z"/>
                                                <path id="path886" gorn="0.28.0.0.0.0.0.0.0.0.0.0.2"  d="m 456.98703,302.00868 v 12.98354 h 7.69042 q 3.86895,0 5.72035,-1.59031 1.87514,-1.61404 1.87514,-4.91333 0,-3.32302 -1.87514,-4.88959 -1.8514,-1.59031 -5.72035,-1.59031 z m 0,-14.57383 V 298.116 h 7.09703 q 3.51291,0 5.22189,-1.30547 1.73272,-1.32921 1.73272,-4.03511 0,-2.68215 -1.73272,-4.01136 -1.70898,-1.32921 -5.22189,-1.32921 z m -4.79465,-3.94016 h 12.24771 q 5.483,0 8.44998,2.27865 2.96699,2.27864 2.96699,6.47989 0,3.25182 -1.5191,5.17443 -1.5191,1.92261 -4.46235,2.39732 3.53665,0.75955 5.48299,3.18061 1.97008,2.39733 1.97008,6.00518 0,4.74718 -3.22808,7.33439 -3.22808,2.58721 -9.18579,2.58721 h -12.72243 z"/>
                                            </g>
                                        </g>
                                    </g>
                                </g>
                            </g>
                        </g>
                    </g>
                </g>
            </g>
        </g>
    </g>
    <g  transform="translate(0,193.43984)">
        <g >
            <g >
                <g >
                    <g >
                        <g >
                            <g >
                                <g >
                                    <g >
                                        <g >
                                            <g id="text41" class="text" font-size="385.802" stroke-width="0" gorn="0.29.0.0.0.0.0.0.0.0.0.0"  aria-label="5" fill="#8c8c8c" style="font-family:Droid Sans;text-anchor:middle;">
                                                <path id="path889" gorn="0.29.0.0.0.0.0.0.0.0.0.0.0"  d="m 600.18834,312.06656 h 13.44468 v 2.88222 h -10.30815 v 6.20523 q 0.74598,-0.25431 1.49197,-0.37299 0.74598,-0.13563 1.49196,-0.13563 4.23855,0 6.71387,2.32272 2.47531,2.32273 2.47531,6.29001 0,4.08596 -2.54313,6.35782 -2.54313,2.25491 -7.17163,2.25491 -1.59369,0 -3.2552,-0.27126 -1.64456,-0.27127 -3.4078,-0.81381 v -3.4417 q 1.52588,0.83076 3.15349,1.23766 1.6276,0.4069 3.4417,0.4069 2.93307,0 4.64545,-1.54283 1.71237,-1.54284 1.71237,-4.18769 0,-2.64486 -1.71237,-4.18769 -1.71238,-1.54283 -4.64545,-1.54283 -1.37329,0 -2.74658,0.30518 -1.35634,0.30517 -2.78049,0.94943 z"/>
                                            </g>
                                        </g>
                                    </g>
                                </g>
                            </g>
                        </g>
                    </g>
                </g>
            </g>
        </g>
    </g>
    <rect id="connector9terminal" x="700" y="288.57874" stroke-width="0" gorn="0.30"  fill="none" width="0" height="9.7222004"/>
    <rect id="connector8terminal" x="700" y="388.57886" stroke-width="0" gorn="0.31"  fill="none" width="0" height="9.7222004"/>
    <rect id="connector7terminal" x="700" y="488.57886" stroke-width="0" gorn="0.32"  fill="none" width="0" height="9.7222004"/>
    <rect id="connector6terminal" x="700" y="588.57886" stroke-width="0" gorn="0.33"  fill="none" width="0" height="9.7222004"/>
    <rect id="connector5terminal" x="700" y="688.57886" stroke-width="0" gorn="0.34"  fill="none" width="0" height="9.7222004"/>
</svg>
